<?xml version="1.0" encoding="UTF-8" standalone="no"?>
<!-- Created with Inkscape (http://www.inkscape.org/) -->
<svg id="svg4915" xmlns:inkscape="http://www.inkscape.org/namespaces/inkscape" xmlns:rdf="http://www.w3.org/1999/02/22-rdf-syntax-ns#" xmlns="http://www.w3.org/2000/svg" sodipodi:docname="favicon.svg" xmlns:sodipodi="http://sodipodi.sourceforge.net/DTD/sodipodi-0.dtd" height="33.867mm" width="33.867mm" version="1.1" xmlns:cc="http://creativecommons.org/ns#" xmlns:xlink="http://www.w3.org/1999/xlink" inkscape:version="0.91 r13725" viewBox="0 0 119.99999 119.99999" xmlns:dc="http://purl.org/dc/elements/1.1/">
 <defs id="defs4917">
  <linearGradient id="linearGradient4255" y2="456.29" gradientUnits="userSpaceOnUse" x2="573.57" gradientTransform="translate(-152.03 479.1)" y1="520.58" x1="501.43" inkscape:collect="always">
   <stop id="stop4542" stop-color="#69c5f6" offset="0"/>
   <stop id="stop4544" stop-color="#32b0f3" offset="1"/>
  </linearGradient>
 </defs>
 <sodipodi:namedview id="base" bordercolor="#666666" inkscape:pageshadow="2" inkscape:window-y="30" fit-margin-left="0" pagecolor="#ffffff" fit-margin-top="0" inkscape:window-maximized="1" inkscape:zoom="0.98994949" inkscape:window-x="0" inkscape:window-height="712" showgrid="false" borderopacity="1.0" inkscape:current-layer="layer1" inkscape:cx="-174.18891" inkscape:cy="71.428567" fit-margin-right="0" fit-margin-bottom="0" inkscape:window-width="1366" inkscape:pageopacity="0.0" inkscape:document-units="px"/>
 <g id="layer1" inkscape:label="Layer 1" inkscape:groupmode="layer" transform="translate(-351.43 -483.79)">
  <g id="g4847" inkscape:export-ydpi="112.49998" inkscape:export-filename="/home/ceci/Dropbox/Mis imágenes/svg inkscape/encuentro/logo/celeste_amarillo/favicon.png" transform="translate(20.783 -420.5)" inkscape:export-xdpi="112.49998">
   <path id="path4249" d="m439.97 954.05-86.821-46.133c-1.8302-1.0571-3.8668-1.581-5.9102-1.581-2.0423 0-4.0789 0.52507-5.9068 1.5822-3.6593 2.1096-5.9091 6.0111-5.9091 10.236v92.277c0 4.2237 2.2486 8.1229 5.9091 10.235 1.8279 1.0571 3.8644 1.5799 5.9068 1.5799 2.0435 0 4.08-0.5228 5.9102-1.5799l86.821-46.145c3.6546-2.1119 5.9056-6.0111 5.9056-10.237 0-4.2226-2.2498-8.1218-5.9056-10.234z" sodipodi:nodetypes="ccscsscsccsc" inkscape:connector-curvature="0" fill="url(#linearGradient4255)"/>
   <path id="path4251" style="color-rendering:auto;color:#000000;isolation:auto;mix-blend-mode:normal;shape-rendering:auto;solid-color:#000000;image-rendering:auto" d="m335.42 960.12v50.314c0 4.2237 2.2478 8.1225 5.9082 10.234 1.8279 1.0571 3.8659 1.5801 5.9082 1.5801 2.0435 0 4.0799-0.523 5.9102-1.5801l32.211-17.119a56.594 56.594 0 0 0 -49.938 -43.43z" fill-rule="evenodd" inkscape:connector-curvature="0" fill="#fedb0f"/>
   <path id="path4253" style="color-rendering:auto;color:#000000;isolation:auto;mix-blend-mode:normal;shape-rendering:auto;solid-color:#000000;image-rendering:auto" d="m439.97 954.05-86.821-46.133c-1.8302-1.0571-3.8668-1.581-5.9102-1.581-2.0423 0-4.0789 0.52507-5.9068 1.5822-3.6593 2.1096-5.9091 6.0111-5.9091 10.236v92.277c0 4.2237 2.2486 8.1229 5.9091 10.235 1.8279 1.0571 3.8644 1.5799 5.9068 1.5799 2.0435 0 4.08-0.5228 5.9102-1.5799l86.821-46.145c3.6546-2.1119 5.9056-6.0111 5.9056-10.237 0-4.2226-2.2498-8.1218-5.9056-10.234z" sodipodi:nodetypes="ccscsscsccsc" inkscape:connector-curvature="0" stroke="#0659a9" stroke-width="3.5" fill="none"/>
  </g>
 </g>
</svg>
